HIERARCHY
ROOT Hips
{
  OFFSET 40.9192 92.6879 18.85
  CHANNELS 6 Xposition Yposition Zposition Zrotation Xrotation Yrotation
  JOINT LeftUpLeg
  {
    OFFSET 8.64259 1.95398 -2.38835
    CHANNELS 3 Zrotation Xrotation Yrotation
    JOINT LeftLeg
    {
      OFFSET 43.7702 0 0
      CHANNELS 3 Zrotation Xrotation Yrotation
      JOINT LeftFoot
      {
        OFFSET 40.6238 0 0
        CHANNELS 3 Zrotation Xrotation Yrotation
        JOINT LeftToeBase
        {
          OFFSET 12.7242 0 0
          CHANNELS 3 Zrotation Xrotation Yrotation
          End Site
          {
            OFFSET 0 0 0
          }
        }
      }
    }
  }
  JOINT RightUpLeg
  {
    OFFSET -8.2249 1.95398 -2.59336
    CHANNELS 3 Zrotation Xrotation Yrotation
    JOINT RightLeg
    {
      OFFSET 43.5653 0 0
      CHANNELS 3 Zrotation Xrotation Yrotation
      JOINT RightFoot
      {
        OFFSET 40.6238 0 0
        CHANNELS 3 Zrotation Xrotation Yrotation
        JOINT RightToeBase
        {
          OFFSET 12.7242 0 0
          CHANNELS 3 Zrotation Xrotation Yrotation
          End Site
          {
            OFFSET 0 0 0
          }
        }
      }
    }
  }
  JOINT Spine
  {
    OFFSET 0.165834 0.87714 6.61349
    CHANNELS 3 Zrotation Xrotation Yrotation
    JOINT Spine1
    {
      OFFSET 7.38963 1.71661e-005 0
      CHANNELS 3 Zrotation Xrotation Yrotation
      JOINT Spine2
      {
        OFFSET 11.9445 1.14441e-005 0
        CHANNELS 3 Zrotation Xrotation Yrotation
        JOINT Spine3
        {
          OFFSET 14.7254 4.19617e-005 0
          CHANNELS 3 Zrotation Xrotation Yrotation
          JOINT Spine4
          {
            OFFSET 10.9679 0 0
            CHANNELS 3 Zrotation Xrotation Yrotation
            JOINT RightShoulder
            {
              OFFSET 2.46616 -1.6653 3.69651
              CHANNELS 3 Zrotation Xrotation Yrotation
              JOINT RightArm
              {
                OFFSET 13.0012 0 0
                CHANNELS 3 Zrotation Xrotation Yrotation
                JOINT RightForeArm
                {
                  OFFSET 28.7848 1.52588e-005 0
                  CHANNELS 3 Zrotation Xrotation Yrotation
                  JOINT RightHand
                  {
                    OFFSET 26.5688 1.52588e-005 0
                    CHANNELS 3 Zrotation Xrotation Yrotation
                    End Site
                    {
                      OFFSET 0 0 0
                    }
                  }
                }
              }
            }
            JOINT LeftShoulder
            {
              OFFSET 2.38034 -1.29275 -3.7523
              CHANNELS 3 Zrotation Xrotation Yrotation
              JOINT LeftArm
              {
                OFFSET 16.3182 6.10351e-005 0
                CHANNELS 3 Zrotation Xrotation Yrotation
                JOINT LeftForeArm
                {
                  OFFSET 27.0901 0 0
                  CHANNELS 3 Zrotation Xrotation Yrotation
                  JOINT LeftHand
                  {
                    OFFSET 24.5451 1.52588e-005 0
                    CHANNELS 3 Zrotation Xrotation Yrotation
                    End Site
                    {
                      OFFSET 0 0 0
                    }
                  }
                }
              }
            }
            JOINT Neck
            {
              OFFSET 5.0226 -0.0266342 0
              CHANNELS 3 Zrotation Xrotation Yrotation
              JOINT Head
              {
                OFFSET 6.69363 2.86102e-005 0
                CHANNELS 3 Zrotation Xrotation Yrotation
                End Site
                {
                  OFFSET 0 0 0
                }
              }
            }
          }
        }
      }
    }
  }
}
MOTION
Frames:	10
Frame Time:	0.0416667
22.7251 90.2686 -56.6649 77.7972 -45.2668 80.2314 -173.398 8.63261 84.5105 -32.0673 10.2619 -1.38854 77.494 21.2479 12.9578 40.6883 9.69925 5.24811 -175.787 34.0541 89.0808 -77.5484 -3.17972 -4.97325 58.61 -2.06388 -1.27722 34.1386 0.352917 -4.38667 -0.116653 7.77557 -89.7418 11.3231 -0.111816 0.524361 -0.347946 -0.0886239 0.52877 -22.8824 -0.264237 0.466517 -2.86974 -0.264228 0.466522 94.3519 -47.9265 -94.4467 21.5071 -17.986 14.0445 -12.5872 -14.4012 -71.3051 -25.9587 -0.341702 -2.92734 -93.1857 -45.355 72.6882 -22.4674 14.8817 5.25794 11.5882 -0.0966743 -90.8562 31.3809 1.8923 2.17091 16.443 -0.892709 0.201807 1.65529 -0.84786 1.25266 
16.5263 90.0653 -61.0037 81.2598 -47.3827 81.3667 -173.108 15.1792 84.1846 -40.2045 9.33622 -1.69771 75.8059 20.0614 14.2677 41.5569 10.4873 5.79908 -176.436 22.0629 87.1187 -75.1384 -5.12591 -6.36668 54.3657 -0.427916 -0.193938 30.4703 0.369366 -5.76568 0.437132 8.06092 -89.6513 10.7492 1.0314 0.599583 -0.921432 1.05679 0.553587 -23.4576 0.803523 0.881841 -3.44494 0.803528 0.881834 94.1728 -47.5464 -94.7912 21.7951 -16.8245 10.2877 -13.0449 -13.3898 -72.6581 -25.9016 -0.644164 -1.65939 -93.9853 -47.1512 71.9868 -26.1444 14.4198 10.8267 10.4359 -2.17709 -81.0972 30.6549 1.77441 1.9193 16.1324 -2.03437 1.84793 1.73985 -2.43687 0.119529 
10.9112 91.1938 -65.0271 81.3045 -50.4332 82.2684 -172.102 20.0079 85.9447 -41.1088 8.28326 -2.02536 75.2132 17.7049 12.2555 41.8646 10.8394 6.77207 -179.253 10.4211 86.4609 -63.0971 -9.90469 -7.62796 50.7877 1.25753 1.13208 31.4314 0.245126 -2.72959 0.96938 8.00249 -89.7578 10.8675 2.04199 0.290192 -0.80182 2.05279 0.19999 -23.3479 1.86034 0.890684 -3.3352 1.86035 0.890676 93.0644 -45.3023 -96.9843 23.1472 -17.8638 7.13018 -11.3502 -11.4033 -75.1148 -26.0558 -0.575912 -2.10312 -92.2578 -46.9499 74.573 -31.0138 14.5083 17.666 9.45971 0.617904 -73.9768 32.0796 2.08179 2.62841 14.6321 -2.59656 2.0363 2.53376 -2.9842 0.483512 
5.30221 92.1628 -68.8551 77.9688 -53.0169 79.5165 -171.72 25.3318 86.8119 -39.426 9.04629 -2.27864 72.7039 15.3428 11.1697 42.1918 11.5614 11.143 177.572 3.38363 84.5664 -50.6736 -12.7134 -8.38604 53.8543 0.736363 0.724732 33.1965 0.324232 -2.46953 1.28878 7.74228 -89.7397 11.3891 2.68596 0.248966 -0.279007 2.6943 0.130414 -22.8339 2.48687 1.04518 -2.82123 2.48686 1.04517 93.4617 -43.8206 -96.6182 22.3528 -19.1986 2.0265 -15.4595 -11.511 -79.417 -23.8147 -0.342039 -2.90942 -90.2646 -46.7852 77.6059 -35.2586 13.29 24.1976 5.31702 0.750318 -68.1905 33.0843 1.93823 1.95795 16.012 -2.16335 2.90086 0.189074 -2.83295 0.00589831 
-0.841732 92.9575 -72.8274 76.3006 -55.4481 79.7974 -171.199 30.0746 90.2142 -38.3331 8.59627 -2.21606 71.6604 11.9492 5.54128 41.2166 10.8501 13.4929 176.476 -1.18692 85.8413 -38.8606 -13.8945 -8.00307 53.5489 0.820933 0.805171 41.8083 0.604181 -0.0652785 1.49918 7.62789 -89.8594 11.6221 3.04808 -0.0364171 -0.0452435 3.04352 -0.170668 -22.6074 2.91798 0.882135 -2.5947 2.91799 0.882133 92.9607 -43.1694 -97.5853 21.8145 -19.5058 -2.46755 -19.0588 -10.3053 -84.4383 -23.6273 -1.05024 0.444764 -89.5536 -45.5464 78.4278 -38.1749 11.3351 29.3213 4.17567 1.77582 -60.9067 33.3572 1.7226 1.24418 16.5056 -1.67112 3.11156 0.0555437 -2.42221 -0.0758713 
-7.3051 92.8806 -77.0354 73.8001 -57.6625 77.3727 -170.432 34.699 91.815 -36.9424 7.27973 -2.80883 72.1202 11.1585 3.61541 41.1868 10.8882 14.2128 175.137 -2.32424 85.7692 -31.2022 -14.9876 -6.74604 57.8695 -0.894019 -0.433665 52.1335 0.83751 -2.34241 1.57521 7.65307 -89.7686 11.57 3.2418 0.126449 -0.0969271 3.24424 -0.0165233 -22.6618 3.05378 1.09581 -2.64916 3.05381 1.09582 93.0253 -42.8552 -97.5426 21.6227 -18.5874 -7.52793 -20.3095 -9.11914 -84.9081 -24.614 -1.05895 0.406702 -90.4295 -45.4083 77.0199 -39.059 11.3761 30.8149 3.61674 3.93656 -52.1591 32.746 1.9661 2.1392 17.8485 -0.92942 3.58452 0.188005 -1.86409 -0.091206 
-14.0407 92.6495 -81.1733 76.3567 -58.2374 77.4694 -168.962 35.202 91.7882 -33.0097 5.38406 -3.96402 72.6979 11.1513 2.33446 41.2615 10.9292 13.853 174.222 -1.88548 85.4933 -30.2206 -15.3917 -6.38655 67.714 -4.56459 -2.45582 52.2216 0.20918 -6.83944 1.32745 7.97087 -89.5648 10.9268 2.84423 0.596683 -0.741169 2.86771 0.470825 -23.296 2.53333 1.42438 -3.28339 2.53333 1.42438 92.5855 -43.363 -98.1734 21.0183 -17.5057 -11.006 -19.5613 -7.88227 -85.8835 -23.2933 -0.114463 -3.9352 -91.3935 -46.7597 75.8543 -38.1414 13.9614 29.3246 0.152467 4.58924 -42.1497 30.2456 1.8002 2.08571 17.5381 -0.297891 3.42581 1.85488 -1.15993 0.54996 
-19.6373 92.7849 -85.0319 80.6709 -58.0004 79.7345 -168.399 33.4835 91.912 -27.5183 5.75471 -4.8121 70 9.14791 3.52899 43.3813 13.013 13.7727 173.276 -1.91075 85.6036 -29.0965 -13.1861 -5.19931 74.8191 -7.33787 -3.4704 47.6959 0.401651 -5.27144 1.1086 8.24181 -89.5139 10.3836 2.43121 0.753395 -1.28524 2.46201 0.645603 -23.8331 2.09236 1.44948 -3.82044 2.09236 1.44948 92.1128 -44.4179 -98.7294 20.479 -16.2848 -10.6544 -18.3945 -7.8198 -84.3965 -25.8847 -0.0987789 -3.96023 -92.7503 -47.7862 74.0449 -37.0819 16.087 26.064 0.464897 10.6234 -32.9707 24.9827 1.74684 3.13776 15.8314 -0.0266848 2.92427 2.67449 -0.626944 1.9253 
-24.144 93.1003 -88.1229 81.6987 -57.7195 81.1279 -168.096 33.9742 93.5238 -27.8244 6.4688 -5.58196 67.3243 6.14713 3.53948 43.4691 13.1111 13.87 174.293 -1.23197 88.3278 -25.8046 -6.44708 -3.43033 79.4001 -9.52665 -4.15421 40.6789 0.439903 -4.14434 0.98031 8.21521 -89.6399 10.4391 2.11787 0.528867 -1.23023 2.13911 0.435107 -23.7757 1.86099 1.14112 -3.76303 1.86099 1.14111 91.9292 -45.2793 -98.8405 20.2203 -15.5436 -8.58625 -16.8916 -9.37373 -81.8954 -26.6794 -0.527477 -2.19311 -92.5584 -47.6338 74.2965 -36.209 14.3357 24.8469 1.80195 12.2272 -29.7516 15.3388 0.932698 2.20427 14.123 -0.0696444 2.48064 2.55549 -0.50775 2.13542 
-27.8804 94.0003 -90.8333 84.5889 -56.5842 83.2852 -168.175 31.467 93.2457 -29.8104 8.59586 -5.018 64.3399 4.42257 3.99898 42.4536 11.9616 12.5279 173.945 -0.285886 89.026 -25.1373 -5.16952 -2.41347 79.3996 -9.09074 -3.95635 37.3273 0.380757 -4.53516 0.789618 8.27368 -89.7015 10.3237 1.70948 0.444542 -1.34622 1.72742 0.368846 -23.8881 1.49685 0.937863 -3.8754 1.49684 0.937857 92.2383 -46.8974 -98.0019 19.3522 -15.2847 -5.41143 -15.2058 -10.0596 -79.1494 -24.1998 -0.701233 -1.30026 -92.176 -47.1823 74.76 -35.3346 12.1283 24.9635 2.16433 8.63337 -30.918 8.49663 0.351088 0.213661 12.7389 -0.270086 1.95662 2.98175 -0.516787 2.62659 
